<?xml version="1.0" encoding="UTF-8"?>
<!DOCTYPE svg PUBLIC "-//W3C//DTD SVG 1.1//EN" "http://www.w3.org/Graphics/SVG/1.1/DTD/svg11.dtd">
<svg xmlns="http://www.w3.org/2000/svg" version="1.1" width="112px" height="99px" style="shape-rendering:geometricPrecision; text-rendering:geometricPrecision; image-rendering:optimizeQuality; fill-rule:evenodd; clip-rule:evenodd" xmlns:xlink="http://www.w3.org/1999/xlink">
<g><path style="opacity:1" fill="#2b9df8" d="M 63.5,-0.5 C 64.5,-0.5 65.5,-0.5 66.5,-0.5C 81.2626,25.3663 96.2626,51.033 111.5,76.5C 111.5,77.5 111.5,78.5 111.5,79.5C 74.1667,79.5 36.8333,79.5 -0.5,79.5C -0.5,78.5 -0.5,77.5 -0.5,76.5C 2.93329,71.1468 6.26662,65.6468 9.5,60C 31.8408,59.8331 54.1741,59.3331 76.5,58.5C 72.6667,51.5 68.8333,44.5 65,37.5C 62.1242,43.4232 58.6242,48.9232 54.5,54C 47.5079,54.4996 40.5079,54.6663 33.5,54.5C 42.7059,35.7565 52.7059,17.4232 63.5,-0.5 Z"/></g>
<g><path style="opacity:1" fill="#2b9df8" d="M 29.5,98.5 C 21.8333,98.5 14.1667,98.5 6.5,98.5C 8.89603,93.5246 11.896,89.0246 15.5,85C 22.4921,84.5004 29.4921,84.3337 36.5,84.5C 34.7127,89.4079 32.3794,94.0745 29.5,98.5 Z"/></g>
<g><path style="opacity:1" fill="#2b9ef9" d="M 67.5,98.5 C 64.8333,98.5 62.1667,98.5 59.5,98.5C 54.6501,92.087 55.9835,87.4203 63.5,84.5C 71.1459,87.3465 72.4792,92.0131 67.5,98.5 Z"/></g>
<g><path style="opacity:1" fill="#2b9ef9" d="M 91.5,98.5 C 88.8333,98.5 86.1667,98.5 83.5,98.5C 78.6571,92.0419 79.9905,87.3753 87.5,84.5C 94.9894,87.4518 96.3227,92.1185 91.5,98.5 Z"/></g>
</svg>
